<?xml version="1.0" encoding="UTF-8"?>
<svg width="16" height="16" viewBox="0 0 16 16" fill="none" xmlns="http://www.w3.org/2000/svg">
    <path d="M2 4C2 2.89543 3.79086 2 6 2H10C12.2091 2 14 2.89543 14 4C14 5.10457 12.2091 6 10 6H6C3.79086 6 2 5.10457 2 4Z" 
        stroke="#666666" 
        stroke-width="1.5"/>
    <path d="M2 8C2 6.89543 3.79086 6 6 6H10C12.2091 6 14 6.89543 14 8C14 9.10457 12.2091 10 10 10H6C3.79086 10 2 9.10457 2 8Z" 
        stroke="#666666" 
        stroke-width="1.5"/>
    <path d="M2 12C2 10.8954 3.79086 10 6 10H10C12.2091 10 14 10.8954 14 12C14 13.1046 12.2091 14 10 14H6C3.79086 14 2 13.1046 2 12Z" 
        stroke="#666666" 
        stroke-width="1.5"/>
</svg> 