<?xml version="1.0" standalone="no"?><!DOCTYPE svg PUBLIC "-//W3C//DTD SVG 1.1//EN" "http://www.w3.org/Graphics/SVG/1.1/DTD/svg11.dtd"><svg t="1730212507373" class="icon" viewBox="0 0 1024 1024" version="1.1" xmlns="http://www.w3.org/2000/svg" p-id="8060" xmlns:xlink="http://www.w3.org/1999/xlink" width="200" height="200"><path d="M154.569143 909.714286h728.137143c76.708571 0 121.289143-44.580571 121.289143-132.864v-451.291429c0-88.265143-44.982857-132.406857-134.144-132.406857H452.845714c-29.129143 0-46.701714-7.296-68.132571-25.289143l-26.148572-21.869714c-28.288-23.570286-50.139429-31.707429-92.562285-31.707429H138.276571c-74.989714 0-118.272 42.861714-118.272 129.426286v533.138286c0 88.722286 45.421714 132.864 134.564572 132.864zM88.996571 247.149714c0-42.422857 22.710857-63.853714 63.433143-63.853714h96c28.288 0 45.421714 6.838857 67.291429 25.709714l26.148571 21.412572c27.849143 23.149714 50.56 31.725714 92.982857 31.725714H868.571429c42.422857 0 66.432 22.710857 66.432 67.291429v25.709714H88.996571z m66.852572 593.554286c-42.843429 0-66.852571-22.710857-66.852572-67.291429V419.876571h846.006858v354.011429c0 44.123429-24.009143 66.852571-66.432 66.852571z" p-id="8061"></path></svg>