<?xml version="1.0" standalone="no"?><!DOCTYPE svg PUBLIC "-//W3C//DTD SVG 1.1//EN" "http://www.w3.org/Graphics/SVG/1.1/DTD/svg11.dtd"><svg t="1730212601707" class="icon" viewBox="0 0 1024 1024" version="1.1" xmlns="http://www.w3.org/2000/svg" p-id="9058" xmlns:xlink="http://www.w3.org/1999/xlink" width="200" height="200"><path d="M618.666667 998.4H213.333333c-55.466667 0-98.133333-42.666667-98.133333-98.133333V157.866667c0-55.466667 42.666667-98.133333 98.133333-98.133334h571.733334c55.466667 0 98.133333 42.666667 98.133333 98.133334v576c0 12.8-8.533333 21.333333-21.333333 21.333333s-21.333333-8.533333-21.333334-21.333333V157.866667c0-29.866667-25.6-55.466667-55.466666-55.466667H213.333333c-29.866667 0-55.466667 25.6-55.466666 55.466667V896c0 29.866667 25.6 55.466667 55.466666 55.466667h405.333334c12.8 0 21.333333 8.533333 21.333333 21.333333s-8.533333 25.6-21.333333 25.6z" fill="#bfbfbf" p-id="9059"></path><path d="M776.533333 998.4H682.666667c-12.8 0-21.333333-8.533333-21.333334-21.333333s8.533333-21.333333 21.333334-21.333334h93.866666c34.133333 0 64-29.866667 64-64v-85.333333c0-12.8 8.533333-21.333333 21.333334-21.333333s21.333333 8.533333 21.333333 21.333333v85.333333c0 55.466667-46.933333 106.666667-106.666667 106.666667z" fill="#bfbfbf" p-id="9060"></path><path d="M627.2 307.2c34.133333 0 64 29.866667 64 64s-29.866667 64-64 64-64-29.866667-64-64 25.6-64 64-64m0-42.666667c-59.733333 0-106.666667 46.933333-106.666667 106.666667s46.933333 106.666667 106.666667 106.666667 106.666667-46.933333 106.666667-106.666667-51.2-106.666667-106.666667-106.666667z" fill="#bfbfbf" p-id="9061"></path><path d="M861.866667 755.2c-8.533333 0-12.8-4.266667-17.066667-8.533333l-93.866667-123.733334c-4.266667-4.266667-8.533333-8.533333-17.066666-8.533333s-12.8 4.266667-17.066667 8.533333l-59.733333 81.066667c-12.8 17.066667-29.866667 25.6-51.2 25.6s-38.4-8.533333-51.2-25.6l-166.4-213.333333c-4.266667-4.266667-8.533333-8.533333-17.066667-8.533334s-12.8 4.266667-17.066667 8.533334l-200.533333 256c-8.533333 8.533333-21.333333 12.8-29.866667 4.266666-8.533333-8.533333-12.8-21.333333-4.266666-29.866666l200.533333-256c12.8-17.066667 29.866667-25.6 51.2-25.6s38.4 8.533333 51.2 25.6l166.4 213.333333c4.266667 4.266667 8.533333 4.266667 17.066667 4.266667s12.8-4.266667 17.066666-8.533334l59.733334-81.066666c12.8-17.066667 29.866667-25.6 51.2-25.6s38.4 8.533333 51.2 25.6l93.866666 123.733333c8.533333 8.533333 4.266667 21.333333-4.266666 29.866667-4.266667 4.266667-8.533333 8.533333-12.8 8.533333z" fill="#bfbfbf" p-id="9062"></path></svg>