<?xml version="1.0" encoding="UTF-8"?>
<svg width="16" height="16" viewBox="0 0 16 16" fill="none" xmlns="http://www.w3.org/2000/svg">
    <path d="M14.5 7.5L12 13H3L1 7.5H14.5Z" fill="#666666"/>
    <path d="M2 4.5V3.5C2 3.22386 2.22386 3 2.5 3H6.5L7.5 4H13.5C13.7761 4 14 4.22386 14 4.5V6H2V4.5Z" fill="#666666"/>
    <path d="M14.5 7.5L12 13H3L1 7.5H14.5ZM14.5 7.5H1M2 4.5V3.5C2 3.22386 2.22386 3 2.5 3H6.5L7.5 4H13.5C13.7761 4 14 4.22386 14 4.5V6H2V4.5Z" 
          stroke="#666666" 
          stroke-width="1.2" 
          stroke-linejoin="round"/>
</svg> 