<?xml version="1.0" encoding="UTF-8"?>
<svg width="14" height="14" viewBox="0 0 14 14" fill="none" xmlns="http://www.w3.org/2000/svg">
    <path d="M12.25 7C12.25 7.18 12.24 7.36 12.23 7.53L13.47 8.55C13.58 8.63 13.61 8.8 13.53 8.93L12.27 11.19C12.19 11.32 12.03 11.37 11.89 11.31L10.42 10.67C10.13 10.89 9.82 11.09 9.47 11.23L9.21 12.84C9.19 12.99 9.06 13.1 8.91 13.1H6.34C6.19 13.1 6.06 12.99 6.04 12.84L5.78 11.23C5.43 11.09 5.12 10.89 4.83 10.67L3.36 11.31C3.22 11.37 3.06 11.32 2.98 11.19L1.72 8.93C1.64 8.8 1.67 8.63 1.78 8.55L3.02 7.53C3 7.36 2.99 7.18 2.99 7C2.99 6.82 3 6.64 3.02 6.47L1.78 5.45C1.67 5.37 1.64 5.2 1.72 5.07L2.98 2.81C3.06 2.68 3.22 2.63 3.36 2.69L4.83 3.33C5.12 3.11 5.43 2.91 5.78 2.77L6.04 1.16C6.06 1.01 6.19 0.9 6.34 0.9H8.91C9.06 0.9 9.19 1.01 9.21 1.16L9.47 2.77C9.82 2.91 10.13 3.11 10.42 3.33L11.89 2.69C12.03 2.63 12.19 2.68 12.27 2.81L13.53 5.07C13.61 5.2 13.58 5.37 13.47 5.45L12.23 6.47C12.24 6.64 12.25 6.82 12.25 7ZM7.625 4.375C6.175 4.375 5 5.55 5 7C5 8.45 6.175 9.625 7.625 9.625C9.075 9.625 10.25 8.45 10.25 7C10.25 5.55 9.075 4.375 7.625 4.375Z" 
          fill="#666666"/>
</svg> 