<?xml version="1.0" standalone="no"?><!DOCTYPE svg PUBLIC "-//W3C//DTD SVG 1.1//EN" "http://www.w3.org/Graphics/SVG/1.1/DTD/svg11.dtd"><svg t="1733126381152" class="icon" viewBox="0 0 1024 1024" version="1.1" xmlns="http://www.w3.org/2000/svg" p-id="5216" xmlns:xlink="http://www.w3.org/1999/xlink" width="200" height="200"><path d="M0 568.888889m56.888889 0l341.333333 0q56.888889 0 56.888889 56.888889l0 341.333333q0 56.888889-56.888889 56.888889l-341.333333 0q-56.888889 0-56.888889-56.888889l0-341.333333q0-56.888889 56.888889-56.888889Z" fill="#9EA5B1" p-id="5217"></path><path d="M56.888889 910.222222a14.222222 14.222222 0 0 1-11.377778-22.755555l45.511111-60.672a28.444444 28.444444 0 0 1 45.511111 0l33.450667 44.572444 91.306667-127.857778a28.444444 28.444444 0 0 1 46.307555 0l102.997334 144.213334a14.222222 14.222222 0 0 1-11.576889 22.499555H56.888889z m56.888889-227.555555a28.444444 28.444444 0 1 1 0 56.888889 28.444444 28.444444 0 0 1 0-56.888889z" fill="#FFFFFF" p-id="5218"></path><path d="M568.888889 568.888889m56.888889 0l341.333333 0q56.888889 0 56.888889 56.888889l0 341.333333q0 56.888889-56.888889 56.888889l-341.333333 0q-56.888889 0-56.888889-56.888889l0-341.333333q0-56.888889 56.888889-56.888889Z" fill="#9EA5B1" p-id="5219"></path><path d="M625.777778 910.222222a14.222222 14.222222 0 0 1-11.377778-22.755555l45.511111-60.672a28.444444 28.444444 0 0 1 45.511111 0l33.450667 44.572444 91.306667-127.857778a28.444444 28.444444 0 0 1 46.307555 0l102.997333 144.213334a14.222222 14.222222 0 0 1-11.576888 22.499555H625.777778z m56.888889-227.555555a28.444444 28.444444 0 1 1 0 56.888889 28.444444 28.444444 0 0 1 0-56.888889z" fill="#FFFFFF" p-id="5220"></path><path d="M568.888889 0m56.888889 0l341.333333 0q56.888889 0 56.888889 56.888889l0 341.333333q0 56.888889-56.888889 56.888889l-341.333333 0q-56.888889 0-56.888889-56.888889l0-341.333333q0-56.888889 56.888889-56.888889Z" fill="#9EA5B1" p-id="5221"></path><path d="M625.777778 341.333333a14.222222 14.222222 0 0 1-11.377778-22.755555l45.511111-60.672a28.444444 28.444444 0 0 1 45.511111 0l33.450667 44.572444 91.306667-127.857778a28.444444 28.444444 0 0 1 46.307555 0l102.997333 144.213334a14.222222 14.222222 0 0 1-11.576888 22.499555H625.777778z m56.888889-227.555555a28.444444 28.444444 0 1 1 0 56.888889 28.444444 28.444444 0 0 1 0-56.888889z" fill="#FFFFFF" p-id="5222"></path><path d="M0 0m56.888889 0l341.333333 0q56.888889 0 56.888889 56.888889l0 341.333333q0 56.888889-56.888889 56.888889l-341.333333 0q-56.888889 0-56.888889-56.888889l0-341.333333q0-56.888889 56.888889-56.888889Z" fill="#9EA5B1" p-id="5223"></path><path d="M56.888889 341.333333a14.222222 14.222222 0 0 1-11.377778-22.755555l45.511111-60.672a28.444444 28.444444 0 0 1 45.511111 0l33.450667 44.572444 91.306667-127.857778a28.444444 28.444444 0 0 1 46.307555 0l102.997334 144.213334a14.222222 14.222222 0 0 1-11.576889 22.499555H56.888889z m56.888889-227.555555a28.444444 28.444444 0 1 1 0 56.888889 28.444444 28.444444 0 0 1 0-56.888889z" fill="#FFFFFF" p-id="5224"></path></svg>