<?xml version="1.0" encoding="UTF-8"?>
<svg width="16" height="16" viewBox="0 0 16 16" fill="none" xmlns="http://www.w3.org/2000/svg">
    <path d="M8.5 2.5L2.5 8.5C2.1 8.9 1.9 9.4 1.9 10C1.9 10.6 2.1 11.1 2.5 11.5L4.5 13.5C4.9 13.9 5.4 14.1 6 14.1C6.6 14.1 7.1 13.9 7.5 13.5L13.5 7.5" 
        stroke="#666666" 
        stroke-width="1.5" 
        stroke-linecap="round" 
        stroke-linejoin="round"/>
    <path d="M14.1 2.9L13.1 1.9C12.7 1.5 12.2 1.3 11.6 1.3C11 1.3 10.5 1.5 10.1 1.9L9.5 2.5L13.5 6.5L14.1 5.9C14.5 5.5 14.7 5 14.7 4.4C14.7 3.8 14.5 3.3 14.1 2.9Z" 
        stroke="#666666" 
        stroke-width="1.5" 
        stroke-linecap="round" 
        stroke-linejoin="round"/>
    <circle cx="5" cy="10" r="1" fill="#666666"/>
</svg> 