<?xml version="1.0" encoding="UTF-8"?>
<svg width="16" height="16" viewBox="0 0 16 16" fill="none" xmlns="http://www.w3.org/2000/svg">
    <path d="M14.5 8.5L8.5 14.5C8.1 14.9 7.6 15.1 7 15.1C6.4 15.1 5.9 14.9 5.5 14.5L1.5 10.5C1.1 10.1 0.9 9.6 0.9 9C0.9 8.4 1.1 7.9 1.5 7.5L7.5 1.5C7.7 1.3 7.9 1.2 8.2 1.1C8.5 1 8.7 1 9 1H13C13.6 1 14.1 1.2 14.5 1.6C14.9 2 15.1 2.5 15.1 3.1V7C15.1 7.6 14.9 8.1 14.5 8.5Z" 
        stroke="#666666" 
        stroke-width="1.5" 
        stroke-linecap="round" 
        stroke-linejoin="round"/>
    <circle cx="11.5" cy="4.5" r="1" fill="#666666"/>
</svg> 