<?xml version="1.0" standalone="no"?><!DOCTYPE svg PUBLIC "-//W3C//DTD SVG 1.1//EN" "http://www.w3.org/Graphics/SVG/1.1/DTD/svg11.dtd"><svg t="1730212742639" class="icon" viewBox="0 0 1024 1024" version="1.1" xmlns="http://www.w3.org/2000/svg" p-id="13377" xmlns:xlink="http://www.w3.org/1999/xlink" width="200" height="200"><path d="M860.730514 183.6032l-145.905371-124.225829c-10.971429-10.971429-22.718171-21.591771-38.224457-21.591771H196.593371c-32.314514 0-56.407771 20.48-56.407771 52.794514v833.828572c0 32.314514 24.093257 49.605486 56.407771 49.605485h629.028572c32.314514 0 45.992229-17.290971 45.992228-49.605485V224.9728c0-15.520914 0.117029-30.398171-10.883657-41.3696z m-40.828343 29.725257h-123.830857V104.886857l123.830857 108.4416z m-621.202285 702.171429v-819.2h468.114285V234.057143c0 8.0896 18.753829 8.528457 26.8288 8.528457h119.456915v672.914286h-614.4z" fill="#8a8a8a" p-id="13378"></path><path d="M313.300114 330.357029h146.285715a14.628571 14.628571 0 1 0 0-29.257143h-146.285715a14.628571 14.628571 0 1 0 0 29.257143zM693.642971 301.099886h-175.542857a14.628571 14.628571 0 1 0 0 29.257143h175.542857a14.628571 14.628571 0 1 0 0-29.257143zM313.300114 403.499886h58.514286a14.628571 14.628571 0 1 0 0-29.257143h-58.514286a14.628571 14.628571 0 1 0 0 29.257143zM415.700114 388.871314a14.628571 14.628571 0 0 0 14.628572 14.628572h102.4a14.628571 14.628571 0 1 0 0-29.257143h-102.4a14.628571 14.628571 0 0 0-14.628572 14.628571zM313.300114 476.642743h117.028572a14.628571 14.628571 0 1 0 0-29.257143h-117.028572a14.628571 14.628571 0 1 0 0 29.257143zM693.642971 447.3856h-204.8a14.628571 14.628571 0 1 0 0 29.257143h204.8a14.628571 14.628571 0 1 0 0-29.257143zM693.642971 374.242743h-87.771428a14.628571 14.628571 0 1 0 0 29.257143h87.771428a14.628571 14.628571 0 1 0 0-29.257143zM591.242971 739.957029h-102.4a14.628571 14.628571 0 1 0 0 29.257142h102.4a14.628571 14.628571 0 1 0 0-29.257142zM693.642971 666.814171h-102.4a14.628571 14.628571 0 1 0 0 29.257143h102.4a14.628571 14.628571 0 1 0 0-29.257143zM313.300114 696.071314h219.428572a14.628571 14.628571 0 1 0 0-29.257143h-219.428572a14.628571 14.628571 0 1 0 0 29.257143zM415.700114 739.957029h-102.4a14.628571 14.628571 0 1 0 0 29.257142h102.4a14.628571 14.628571 0 1 0 0-29.257142zM313.300114 549.7856h87.771429a14.628571 14.628571 0 1 0 0-29.257143h-87.771429a14.628571 14.628571 0 1 0 0 29.257143zM693.642971 520.528457h-234.057142a14.628571 14.628571 0 1 0 0 29.257143h234.057142a14.628571 14.628571 0 1 0 0-29.257143zM313.300114 622.928457h190.171429a14.628571 14.628571 0 1 0 0-29.257143h-190.171429a14.628571 14.628571 0 1 0 0 29.257143zM693.642971 593.671314h-131.657142a14.628571 14.628571 0 1 0 0 29.257143h131.657142a14.628571 14.628571 0 1 0 0-29.257143z" fill="#8a8a8a" p-id="13379"></path></svg>