<svg xmlns:xlink="http://www.w3.org/1999/xlink" xmlns="http://www.w3.org/2000/svg" version="1.1" viewBox="0 0 1024 1024" height="1024px" width="1024px">
    <title>文件夹空空如也</title>
    <defs>
        <linearGradient id="linearGradient-1" y2="44.0501254%" x2="50%" y1="-29.88559%" x1="50%">
            <stop offset="0%" stop-color="#CFDFFA"></stop>
            <stop offset="100%" stop-opacity="0" stop-color="#EAF0FC"></stop>
        </linearGradient>
        <linearGradient id="linearGradient-2" y2="69.8229089%" x2="53.6226986%" y1="33.7484636%" x1="50%">
            <stop offset="0%" stop-color="#CFDFFA"></stop>
            <stop offset="100%" stop-opacity="0" stop-color="#EAF0FC"></stop>
        </linearGradient>
        <linearGradient id="linearGradient-3" y2="66.4977364%" x2="53.6226986%" y1="36.47456%" x1="50%">
            <stop offset="0%" stop-color="#CFDFFA"></stop>
            <stop offset="100%" stop-opacity="0" stop-color="#EAF0FC"></stop>
        </linearGradient>
        <linearGradient id="linearGradient-4" y2="100%" x2="57.28025%" y1="11.4973736%" x1="50%">
            <stop offset="0%" stop-color="#BFD4FA"></stop>
            <stop offset="100%" stop-color="#5792F0"></stop>
        </linearGradient>
        <linearGradient id="linearGradient-5" y2="131.881015%" x2="51.9400923%" y1="11.4973736%" x1="50%">
            <stop offset="0%" stop-color="#BFD4FA"></stop>
            <stop offset="100%" stop-color="#5792F0"></stop>
        </linearGradient>
        <linearGradient id="linearGradient-6" y2="128.49897%" x2="74.2827921%" y1="13.0877007%" x1="50%">
            <stop offset="0%" stop-color="#BFD4FA"></stop>
            <stop offset="100%" stop-color="#5792F0"></stop>
        </linearGradient>
        <linearGradient id="linearGradient-7" y2="131.881015%" x2="54.0733641%" y1="11.4973736%" x1="50%">
            <stop offset="0%" stop-color="#BFD4FA"></stop>
            <stop offset="100%" stop-color="#5792F0"></stop>
        </linearGradient>
        <linearGradient id="linearGradient-8" y2="131.881015%" x2="51.9795749%" y1="11.4973736%" x1="50%">
            <stop offset="0%" stop-color="#BFD4FA"></stop>
            <stop offset="100%" stop-color="#5792F0"></stop>
        </linearGradient>
        <linearGradient id="linearGradient-9" y2="131.881015%" x2="55.3643684%" y1="11.4973736%" x1="50%">
            <stop offset="0%" stop-color="#BFD4FA"></stop>
            <stop offset="100%" stop-color="#5792F0"></stop>
        </linearGradient>
        <linearGradient id="linearGradient-10" y2="53.7022797%" x2="74.2827921%" y1="48.2590898%" x1="50%">
            <stop offset="0%" stop-color="#BFD4FA"></stop>
            <stop offset="100%" stop-color="#5792F0"></stop>
        </linearGradient>
        <linearGradient id="linearGradient-11" y2="-1.23255816%" x2="-17.9385803%" y1="119.605122%" x1="118.461169%">
            <stop offset="0%" stop-color="#5792F0"></stop>
            <stop offset="100%" stop-color="#BFD4FA"></stop>
        </linearGradient>
        <linearGradient id="linearGradient-12" y2="50%" x2="-11.3176499%" y1="50%" x1="146.853724%">
            <stop offset="0%" stop-opacity="0" stop-color="#EAF0FC"></stop>
            <stop offset="100%" stop-color="#CFDFFA"></stop>
        </linearGradient>
        <linearGradient id="linearGradient-13" y2="50%" x2="-11.3176499%" y1="50%" x1="146.853724%">
            <stop offset="0%" stop-opacity="0" stop-color="#EAF0FC"></stop>
            <stop offset="100%" stop-color="#CFDFFA"></stop>
        </linearGradient>
        <linearGradient id="linearGradient-14" y2="30.1198066%" x2="-17.9385803%" y1="77.0094511%" x1="118.461169%">
            <stop offset="0%" stop-color="#5792F0"></stop>
            <stop offset="100%" stop-color="#BFD4FA"></stop>
        </linearGradient>
        <linearGradient id="linearGradient-15" y2="50%" x2="-11.3176499%" y1="50%" x1="146.853724%">
            <stop offset="0%" stop-opacity="0" stop-color="#EAF0FC"></stop>
            <stop offset="100%" stop-color="#CFDFFA"></stop>
        </linearGradient>
        <linearGradient id="linearGradient-16" y2="50%" x2="-11.3176499%" y1="50%" x1="146.853724%">
            <stop offset="0%" stop-opacity="0" stop-color="#EAF0FC"></stop>
            <stop offset="100%" stop-color="#CFDFFA"></stop>
        </linearGradient>
        <linearGradient id="linearGradient-17" y2="50%" x2="-11.3176499%" y1="50%" x1="146.853724%">
            <stop offset="0%" stop-opacity="0" stop-color="#EAF0FC"></stop>
            <stop offset="100%" stop-color="#CFDFFA"></stop>
        </linearGradient>
        <linearGradient id="linearGradient-18" y2="-11.5290622%" x2="-17.9385803%" y1="188.087506%" x1="219.196164%">
            <stop offset="0%" stop-color="#5792F0"></stop>
            <stop offset="100%" stop-color="#BFD4FA"></stop>
        </linearGradient>
        <linearGradient id="linearGradient-19" y2="0%" x2="87.9799486%" y1="262.878906%" x1="-41.7190922%">
            <stop offset="0%" stop-color="#5792F0"></stop>
            <stop offset="100%" stop-color="#BFD4FA"></stop>
        </linearGradient>
        <linearGradient id="linearGradient-20" y2="73.6326896%" x2="100%" y1="11.7098971%" x1="14.3474826%">
            <stop offset="0%" stop-color="#BFD4FA"></stop>
            <stop offset="100%" stop-color="#5792F0"></stop>
        </linearGradient>
        <linearGradient id="linearGradient-21" y2="93.1271749%" x2="50%" y1="-31.010887%" x1="43.707299%">
            <stop offset="0%" stop-color="#BFD4FA"></stop>
            <stop offset="100%" stop-color="#5792F0"></stop>
        </linearGradient>
        <linearGradient id="linearGradient-22" y2="100%" x2="50%" y1="12.9243097%" x1="50%">
            <stop offset="0%" stop-color="#FFCDA5"></stop>
            <stop offset="100%" stop-color="#FFE8D1"></stop>
        </linearGradient>
        <linearGradient id="linearGradient-23" y2="100%" x2="88.72%" y1="0%" x1="42.3145579%">
            <stop offset="0%" stop-color="#FFF2DF"></stop>
            <stop offset="100%" stop-color="#FEE0BC"></stop>
        </linearGradient>
        <linearGradient id="linearGradient-24" y2="61.3220709%" x2="210.359568%" y1="25.7376426%" x1="35.6067948%">
            <stop offset="0%" stop-color="#FEE127"></stop>
            <stop offset="100%" stop-color="#F9AB21"></stop>
        </linearGradient>
        <linearGradient id="linearGradient-25" y2="100%" x2="50%" y1="0%" x1="50%">
            <stop offset="0%" stop-color="#FEE127"></stop>
            <stop offset="100%" stop-color="#F9AB21"></stop>
        </linearGradient>
        <linearGradient id="linearGradient-26" y2="38.1816114%" x2="126.959811%" y1="25.7376426%" x1="33.2709467%">
            <stop offset="0%" stop-color="#FEE127"></stop>
            <stop offset="100%" stop-color="#F9AB21"></stop>
        </linearGradient>
    </defs>
    <g fill-rule="evenodd" fill="none" stroke-width="1" stroke="none" id="文件夹空空如也">
        <rect height="1024" width="1024" y="0" x="0" id="矩形"></rect>
        <g transform="translate(32.000000, 149.000000)" id="编组">
            <g id="背景">
                <ellipse ry="250" rx="480" cy="766" cx="480" fill="url(#linearGradient-1)" id="椭圆形"></ellipse>
                <path fill="url(#linearGradient-2)" id="云" d="M814,116.212121 C814,130.606061 800.181818,142.121212 782.727273,142.121212 L686,142.121212 C668.545455,140.969697 654,130.030303 654,115.060606 C654,105.272727 660.545455,96.6363636 670,92.030303 C669.272727,90.3030303 668.545455,88.5757576 668.545455,86.8484848 C668.545455,77.0606061 678,68.4242424 690.363636,68.4242424 C695.454545,68.4242424 699.818182,70.1515152 703.454545,72.4545455 C712.181818,59.2121212 728.181818,50 747.090909,50 C773.272727,50 794.363636,67.8484848 794.363636,89.7272727 L794.363636,92.030303 C806,96.0606061 814,105.272727 814,116.212121 Z"></path>
                <path fill="url(#linearGradient-3)" id="云" d="M166.222222,0 C190.894883,0 211.8847,15.7681262 219.664106,37.7768098 L256.5,37.7777778 C266.164983,37.7777778 274,45.6127947 274,55.2777778 L274,98.0555556 C274,107.720539 266.164983,115.555556 256.5,115.555556 L78.1666667,115.555556 C68.5016835,115.555556 60.6666667,107.720539 60.6666667,98.0555556 L60.6669111,85.6467185 C56.4406838,78.8453656 54,70.81882 54,62.2222222 C54,37.6762333 73.8984556,17.7777778 98.4444444,17.7777778 C106.377692,17.7777778 113.825468,19.8563268 120.272891,23.4985432 C130.565544,9.26259942 147.312185,0 166.222222,0 Z"></path>
                <g transform="translate(170.000000, 570.000000)" id="草">
                    <ellipse ry="4" rx="12.8" cy="78" cx="26.8" fill="#CCDCF6" id="椭圆形"></ellipse>
                    <path fill-rule="nonzero" fill="url(#linearGradient-4)" id="路径-42" d="M13.2096985,76.4334696 C14.9527214,47.3262499 22.2548023,30.479152 35.1159413,25.892176 C40.1793835,25.2161532 45.8226773,24.1997042 41.8878028,30.7617951 C37.9529282,37.3238861 27.4160559,34.7701422 16.879533,76.4161198 C15.9265298,78.1966928 14.7032516,78.202476 13.2096985,76.4334696 Z"></path>
                    <path fill-rule="nonzero" fill="url(#linearGradient-5)" id="路径-41" d="M12.9692534,76.0688036 C9.54744327,48.8820916 6.74680699,31.7849012 4.56734456,24.7772324 C1.2981509,14.2657291 -5.66257226,-5.963969 8.82439601,1.68943966 C23.3113643,9.34284832 25.0241679,48.6011298 18.327685,72.4929976 C16.2462776,78.5387167 14.4601337,79.730652 12.9692534,76.0688036 Z"></path>
                </g>
                <g fill-rule="nonzero" transform="translate(686.120225, 515.426704)" id="草">
                    <path fill="url(#linearGradient-6)" id="路径-43" d="M65.8576891,95.4430222 C63.3395468,83.9806553 55.9856639,75.9680543 43.7960405,71.4052192 C29.8759357,66.9305791 22.2494886,61.6117041 30.9599814,57.7550267 C38.3155159,57.1703291 54.0022982,51.4419217 65.8576891,85.6583003 C66.6827635,88.9740418 66.6827635,92.2356158 65.8576891,95.4430222 Z"></path>
                    <path fill="url(#linearGradient-7)" id="路径-44" d="M66.4764949,97.2611071 C59.1454779,69.8960192 50.8174439,49.9170768 41.4923928,37.3242799 C34.6452589,28.7188412 35.1250476,16.405104 41.4923928,13.6218727 C48.0100381,12.8970718 60.0222617,11.7760378 69.0669112,58.9373338 C69.6381527,62.1812743 72.8251647,81.1589956 69.0669112,93.4066801 C68.5106318,95.0875751 67.6471596,96.3723841 66.4764949,97.2611071 Z"></path>
                    <path fill="url(#linearGradient-8)" id="路径-45" d="M68.1696321,91.0804085 C71.4853494,78.835463 71.0643832,62.8586309 66.9067333,43.1499123 C60.5471905,24.0440706 49.6921744,0.541796566 69.4774519,0 C77.5044316,1.09154868 87.1972186,9.50543486 83.5347739,51.4392686 C81.3029234,68.3604083 77.4213217,78.3565362 73.3477064,91.0804085 C71.9266832,91.8737887 70.2006584,91.8737887 68.1696321,91.0804085 Z"></path>
                    <path fill="url(#linearGradient-9)" id="路径-46" d="M72.0427224,95.836031 C70.7154818,61.2121058 77.0522244,36.363996 91.0529503,21.2917016 C94.833726,16.2551414 109.217459,11.5380494 109.163159,27.3263959 C107.661554,34.1152854 104.448437,48.6087163 85.9202741,70.7214245 C79.8162941,78.7025415 75.8046094,90.365172 75.7655073,93.0996265 C75.7394392,94.9225962 74.4985109,95.834731 72.0427224,95.836031 Z"></path>
                    <path fill="url(#linearGradient-10)" id="路径-47" d="M0,100.407711 C13.8643816,97.8236334 21.5103995,95.6299697 22.9380537,93.8267198 C25.0795349,91.1218449 43.9450099,79.5080271 55.7094426,89.2905093 C58.2703723,85.9992821 66.4835238,83.4391237 71.1837342,89.2905093 C73.3341085,80.0524096 86.7490663,74.1360276 92.583369,75.0945046 C99.1537088,74.5803177 118.55034,74.7942504 120,100.407711 C114.707841,100.530921 74.7078414,100.530921 0,100.407711 Z"></path>
                </g>
            </g>
            <g transform="translate(244.000000, 250.000000)" id="文件夹">
                <path fill-rule="nonzero" fill="url(#linearGradient-11)" id="矩形" d="M21.8947368,37.0526316 L106.038286,37.0526316 L120.019527,59.2025599 L259.311496,58.954771 C276.98458,58.923332 291.336931,73.2247111 291.36837,90.8977951 C291.368404,90.9167702 291.368421,90.9357453 291.368421,90.9547204 L291.368421,282.947368 L291.368421,282.947368 L21.8947368,282.947368 L21.8947368,37.0526316 Z"></path>
                <rect height="242.526316" width="218.947368" y="90.9473684" x="50.5263158" fill="url(#linearGradient-12)" id="矩形"></rect>
                <rect height="213.894737" width="229.052632" y="114.526316" x="45.4736842" fill="#FFFFFF" id="矩形"></rect>
                <rect height="197.052632" width="237.473684" y="129.684211" x="43.7894737" fill="url(#linearGradient-13)" id="矩形"></rect>
                <polygon points="0 151.578947 320 151.578947 290.909091 333.473684 29.0909091 333.473684" fill-rule="nonzero" fill="url(#linearGradient-14)" id="矩形"></polygon>
                <rect rx="5.89473684" height="11.7894737" width="11.7894737" y="230.736842" x="185.263158" fill="url(#linearGradient-15)" id="矩形"></rect>
                <rect rx="5.89473684" height="11.7894737" width="52.2105263" y="230.736842" x="208.842105" fill="url(#linearGradient-16)" id="矩形"></rect>
                <rect rx="5.89473684" height="11.7894737" width="75.7894737" y="256" x="183.578947" fill="url(#linearGradient-17)" id="矩形备份-2"></rect>
                <circle r="25.2631579" cy="25.2631579" cx="143.157895" fill-rule="nonzero" fill="url(#linearGradient-18)" id="椭圆形"></circle>
                <polygon points="143.157895 33.6842105 133.258354 38.8887073 135.148998 27.8654063 127.140101 20.0586611 138.208124 18.4503832 143.157895 8.42105263 148.107665 18.4503832 159.175689 20.0586611 151.166792 27.8654063 153.057436 38.8887073" fill="#FFFFFF" id="星形"></polygon>
            </g>
            <g fill-rule="nonzero" fill="url(#linearGradient-19)" transform="translate(440.000000, 74.000000) scale(-1, 1) rotate(28.000000) translate(-440.000000, -74.000000) translate(394.000000, 26.000000)" id="plane">
                <polygon points="51.8021769 76.1562117 78.842578 87.896367 92 0 0 54.2333469 24.1399757 65.6628429 82.4687729 12.4677578 35.6390872 71.0653358 35.0173932 96" id="路径"></polygon>
            </g>
            <path transform="translate(581.395935, 233.604651) rotate(-17.000000) translate(-581.395935, -233.604651)" fill-rule="nonzero" stroke-dasharray="4" opacity="0.300000012" stroke="#5792F0" id="路径-26" d="M534,96 C649.055324,170.850664 659.372808,262.587098 564.952452,371.209302"></path>
            <g transform="translate(564.000000, 393.200000)" id="人物">
                <ellipse ry="16" rx="50" cy="246.8" cx="54" fill="#CCDCF6" id="椭圆形"></ellipse>
                <path fill-rule="nonzero" fill="url(#linearGradient-20)" id="路径-52" d="M38.6300477,235.235362 L37.8007519,240.654984 C34.4234067,240.760606 30.750592,241.753363 26.7823078,243.633257 C24.2287309,245.271596 24.1150782,246.01393 24.0328715,247.424613 C23.9780671,248.365068 31.1929355,248.365068 45.6774767,247.424613 L45.6774767,233.249114 L38.6300477,235.235362 Z"></path>
                <path fill-rule="nonzero" fill="url(#linearGradient-20)" id="路径-52备份-2" d="M70.6300477,235.235362 L69.8007519,240.654984 C66.4234067,240.760606 62.750592,241.753363 58.7823078,243.633257 C56.2287309,245.271596 56.1150782,246.01393 56.0328715,247.424613 C55.9780671,248.365068 63.1929355,248.365068 77.6774767,247.424613 L77.6774767,233.249114 L70.6300477,235.235362 Z"></path>
                <path fill-rule="nonzero" fill="url(#linearGradient-21)" id="腿" d="M63.4798058,123.785314 C68.6750615,123.805568 72.8281177,124.432399 72.8281177,124.432399 C72.8281177,124.432399 71.3760846,143.047994 72.5330361,163.348918 C74.4320731,196.615503 79.3228235,238.234089 79.3228235,238.234089 L68.9920634,238.234089 C68.9920634,238.234089 52.013417,182.003971 52.1927293,145.31426 C46.0431551,176.221219 46.8317641,238.771761 46.8317641,238.771761 L35.9634303,237.694667 C35.9634303,237.694667 32.1302975,199.819086 31.1837007,169.374698 C30.4182428,144.709705 32.5013401,126.250105 32.5013401,126.250105 C37.8190756,125.533357 43.2048111,125.470098 48.5379757,126.061745 C48.5519929,126.063397 48.5660146,126.065057 48.5800408,126.066726 C50.9329551,125.295295 53.8831978,124.50135 56.8908161,124.137612 C58.9422461,123.889246 61.0228754,123.792804 62.9738901,123.785314 L63.4798058,123.785314 Z"></path>
                <g transform="translate(59.617349, 26.476940) scale(-1, 1) translate(-59.617349, -26.476940) translate(39.617349, 0.000000)" id="头">
                    <rect height="14.7259384" width="14.7259384" y="38.2279411" x="15.9030099" fill="url(#linearGradient-22)" id="矩形"></rect>
                    <ellipse ry="16.7340209" rx="14.7259384" cy="26.8488069" cx="25.2740616" fill="url(#linearGradient-23)" id="椭圆形"></ellipse>
                    <path fill="#483029" id="路径-53" d="M38.633377,16.179698 C34.5465891,21.8060201 29.9159912,25.1974521 24.7415832,26.3539941 C22.9496901,27.2264212 19.0354404,24.5262489 18.2108894,28.1619803 C17.9766837,30.5999513 19.3518129,33.9457585 21.2979246,33.3437386 C20.6077901,35.4939378 18.6707419,37.9181311 15.4867798,40.6163185 C12.2024395,41.904943 8.88101335,41.4257987 5.52250136,39.1788855 C0.957681042,34.8920992 -4.44906325,20.6753232 6.06580044,8.46502605 C6.39150047,8.27630082 18.4960557,-3.32957295 33.4895535,6.58602551 C37.2526076,9.03034944 38.9672155,12.2282403 38.633377,16.179698 Z"></path>
                    <circle r="7.43734262" cy="7.43734262" cx="7.87067988" fill="#483029" id="椭圆形"></circle>
                </g>
                <g transform="translate(0.000000, 45.644812)" id="上半身">
                    <path fill="url(#linearGradient-24)" id="胳膊" d="M47.4943933,1.16269478 C47.4943933,1.16269478 40.7649057,4.14935926 37.465851,9.66511959 C32.0297096,18.7573381 28.911665,34.2935028 28.911665,34.2935028 C28.911665,34.2935028 28.6605865,39.0199718 25.0783387,45.7277882 C21.1807829,53.0245285 19.770656,53.937346 19.770656,53.937346 C19.770656,53.937346 14.2031364,57.7156215 12.6908264,58.0421248 C10.8456914,58.44112 6.49852997,60.3876713 6.49852997,60.3876713 L9.44724254,69.4752506 C9.44724254,69.4752506 21.5807569,68.3516263 30.0940696,64.4910003 C36.4527785,61.6055345 38.9402073,53.9361861 38.9402073,53.9361861 L47.4943933,1.16269478 Z"></path>
                    <path fill="url(#linearGradient-25)" id="衣服" d="M50.7916593,7.13421412 L63.7101596,0 C63.7101596,0 64.9070727,1.1067661 65.3932869,1.63451783 C66.3496868,2.31558043 67.1981191,2.98015972 67.1981191,2.98015972 C67.1981191,2.98015972 70.4627421,4.85369773 72.269418,7.90617719 C74.4346737,11.564497 74.333517,24.0315557 74.333517,24.0315557 C74.333517,24.0315557 73.9659562,33.3514762 74.6283877,43.0890847 C75.7725088,59.9074319 76.2900544,79.8255612 76.2900544,79.8255612 C76.2900544,79.8255612 62.8670572,80.5482145 52.7450904,80.6198363 C42.0888519,80.6949385 31.8632971,80.0315143 31.8632971,80.0315143 L38.3504648,20.5133809 C38.3504648,20.5133809 39.3314227,10.3500227 43.0713244,4.38771248 C44.7150127,1.76292735 48.8987557,0.667910149 48.8987557,0.667910149 L50.7916593,7.13421412 Z"></path>
                    <path fill="url(#linearGradient-26)" id="胳膊-2" d="M67.5514778,3.21508422 C67.5514778,3.21508422 73.4956155,7.02380631 75.5159214,10.5448807 C78.5638975,15.8602736 79.9389901,39.864067 79.9389901,39.864067 C79.9389901,39.864067 80.4586643,43.9378194 78.4646339,47.1938636 C76.3333859,50.6734726 56.933193,62.4400607 56.933193,62.4400607 L41.0072256,71.2356426 L35.9914948,60.0942243 L63.1254894,40.1572241 C63.1254894,40.1572241 64.3721233,39.1745245 64.6027652,37.8116776 C64.81589,36.5387206 62.2408757,21.6860092 62.2408757,21.6860092 C62.2408757,21.6860092 61.1986079,15.7524057 62.8306181,11.424352 C64.2845379,7.57039496 67.5514778,3.21508422 67.5514778,3.21508422 Z"></path>
                    <path fill="#483029" id="iPad" d="M2.07254159,46.0209453 L32.4530396,46.0209453 C32.8442956,46.0211759 33.2194344,46.1757666 33.4959299,46.4507091 C33.7724253,46.7256516 33.9276283,47.0984239 33.9273959,47.4870206 L34.8120102,67.4240207 C34.8120102,67.8126411 34.6571414,68.1854579 34.3806292,68.4604175 C34.1041169,68.7353764 33.7289331,68.8900965 33.3376534,68.8900965 L4.13664039,68.8900965 C3.74536069,68.8900965 3.37017684,68.7353764 3.09366461,68.4604175 C2.81715237,68.1854579 2.66197427,67.8126411 2.6622841,67.4240207 L0.598185043,47.4870206 C0.598185043,47.0984239 0.753155943,46.7256516 1.0296514,46.4507091 C1.30614685,46.1757666 1.68128568,46.0211759 2.07254159,46.0209453 L2.07254159,46.0209453 Z"></path>
                    <path fill="#FEE0BC" id="手" d="M35.9914948,60.3876713 L27.5599285,60.6527015 C27.5599285,60.6527015 26.7979344,60.6184854 26.7716587,61.9793025 C26.783305,62.3212404 26.9860204,62.6281685 27.2971719,62.7749731 L29.3963049,63.5709337 C28.3653918,63.8457659 27.3106608,64.0233369 26.2461456,64.1012841 C24.8478345,64.1796035 23.4461908,64.1796035 22.0478796,64.1012841 C22.0478796,64.1012841 21.1340707,64.0082046 21.2596099,65.4275951 C21.3968272,66.9241167 21.7851231,69.141498 21.7851231,69.141498 C21.7851231,69.141498 21.9632136,70.6557078 23.8842561,70.9972897 C26.3541678,71.4377502 32.2807881,71.52764 32.2807881,71.52764 C33.7723166,71.5472061 35.2632918,71.4585301 36.7418107,71.2623196 C37.95633,71.073841 40.4145636,70.2013291 40.4145636,70.2013291 C40.4145636,70.2013291 39.3547787,67.5536361 38.3329476,65.0088822 C37.6686297,63.4130751 36.8859963,61.8684301 35.9914948,60.3876713 Z M2.48127403,60.5167068 L9.65744782,60.0919046 C9.65744782,60.0919046 10.2997417,59.9985351 10.4194418,61.2857005 C10.4427467,61.6002286 10.2959827,61.9033567 10.0340655,62.081661 L8.30863078,63.0040474 C9.20139076,63.1815884 10.1104494,63.2655592 11.0208624,63.2545793 C12.2140537,63.2164637 13.4036613,63.1040254 14.5826736,62.9179271 C14.5826736,62.9179271 15.3534262,62.7561252 15.3476529,64.111433 C15.3417482,65.5403925 15.1694966,67.672523 15.1694966,67.672523 C15.0904664,68.5970274 14.4309134,69.3705458 13.5258083,69.6002264 C11.4617096,70.2161175 6.4372201,70.7763345 6.4372201,70.7763345 C5.17417585,70.9141637 3.90193154,70.9496572 2.63308893,70.8824627 C2.16888567,70.8459267 1.54702846,70.9465451 1.10910085,70.6504884 C0.732184525,70.3464167 0.438072494,69.9533105 0.253682253,69.5071469 C-0.0941210224,67.7368613 -0.0841970439,65.9155718 0.282877427,64.1491287 C0.454830137,63.3267759 0.68806028,62.5182478 0.980642087,61.7302205 C1.18585627,61.0602717 1.77914639,60.5804967 2.48127403,60.5167068 L2.48127403,60.5167068 Z"></path>
                </g>
            </g>
        </g>
    </g>
</svg>