<?xml version="1.0" standalone="no"?><!DOCTYPE svg PUBLIC "-//W3C//DTD SVG 1.1//EN" "http://www.w3.org/Graphics/SVG/1.1/DTD/svg11.dtd"><svg t="1730212815365" class="icon" viewBox="0 0 1024 1024" version="1.1" xmlns="http://www.w3.org/2000/svg" p-id="15857" xmlns:xlink="http://www.w3.org/1999/xlink" width="200" height="200"><path d="M914.98766 0H109.01234A53.988777 53.988777 0 0 0 55.023562 53.988777v916.009591a53.988777 53.988777 0 0 0 53.988778 53.988778h805.97532a53.988777 53.988777 0 0 0 53.988778-53.988778V53.988777a53.988777 53.988777 0 0 0-53.988778-53.988777z m-28.279836 221.443969h-73.411882L766.749903 82.268613H886.707824z m-530.439738 0L309.722047 82.268613h141.771959l46.546039 139.175356z m228.513928 0L538.235975 82.268613H680.007934l46.546038 139.175356zM222.980078 82.268613l46.546039 139.175356H137.292176V82.268613zM137.292176 941.718532V303.712582h749.415648V941.718532z" p-id="15858"></path><path d="M710.511593 563.128658l-267.07734-154.25365a53.988777 53.988777 0 0 0-80.983167 46.75171v308.455882a53.988777 53.988777 0 0 0 80.983167 46.75171l267.07734-154.253649a53.988777 53.988777 0 0 0 0-93.503421zM444.7197 715.055648V504.666524l182.237833 105.213844z" p-id="15859"></path></svg>