<?xml version="1.0" encoding="utf-8" ?>
<svg xmlns="http://www.w3.org/2000/svg" xmlns:xlink="http://www.w3.org/1999/xlink" width="1024" height="1024">
	<path fill="#162643" transform="scale(2 2)" d="M94.8092 73.5193C105.113 73.2472 115.503 73.5147 125.814 73.5164L227.899 73.5091C245.144 73.492 248.726 69.5146 260.821 81.6577L309.362 130.012C325.605 146.403 326.024 140.275 326.012 161.726L325.997 187.322C334.212 187.352 340.526 185.957 346.88 192.002C353.246 198.061 359.392 204.377 365.659 210.541L424.188 268.352C434.866 278.727 446.594 290.183 432.887 304.489C422.353 315.484 411.539 326.281 400.786 337.063C391.129 346.746 380.339 362.037 364.564 353.108C357.086 348.876 339.607 329.241 332.43 322.262C330.325 320.126 328.251 317.95 325.997 315.969C325.809 318.56 325.98 321.221 325.984 323.821L326.009 401.472C326.011 415.926 322.562 430.536 305.142 433.027C301.005 433.618 296.668 433.411 292.494 433.412L108.989 433.43C92.9202 433.461 76.2042 432.071 73.4415 411.095C72.857 406.658 73.2332 401.812 73.2397 397.32L73.2516 116.654C73.2412 99.2286 70.3619 76.5175 94.8092 73.5193ZM225.255 83.7154L109.882 83.7084C99.0227 83.7058 83.5414 82.0402 83.5357 98.3049L83.6663 397.629C83.6135 422.525 88.4206 422.95 109.498 422.867L216.826 422.856L291.725 422.874C312.796 423.075 315.767 419.224 315.746 398.121L315.729 305.48C311.677 301.03 307.238 296.86 302.982 292.602L288.334 277.671C269.006 258.137 273.025 260.812 273.013 234.172C273.009 224.356 272.615 214.362 273.02 204.566C273.908 183.085 301.302 187.077 315.729 187.322C315.858 176.5 315.969 165.579 315.729 154.762L287.191 154.75C280.287 154.751 272.646 155.516 265.914 153.861C244.364 148.562 245.009 129.488 245.01 112.423L245.024 83.7154C238.485 83.3804 231.815 83.7289 225.255 83.7154ZM286.535 260.782C288.44 261.459 289.498 264.367 291.521 264.545C293.906 262.386 297.841 246.403 303.584 243.396C303.193 243.025 303.108 242.937 302.944 242.429C310.093 244.561 312.602 247.978 321.681 243.042C328.083 239.562 330.507 233.777 332.43 227.105C332.568 228.153 332.161 229.023 332.182 230.054C334.68 223.531 353.194 221.096 358.021 218.239C357.029 217.082 353.99 214.884 353.975 213.466C335.159 192.468 336.714 197.758 309.095 197.786C299.679 197.796 283.324 194.06 283.265 206.992L283.281 239.255C283.28 244.369 281.267 257.372 286.535 260.782Z"/>
	<path fill="#FC7B4F" transform="scale(2 2)" d="M255.492 90.895C258.558 92.9193 265.843 101.337 268.913 104.4L292.823 128.198C298.264 133.623 303.799 138.968 308.914 144.705C297.877 144.501 286.8 144.73 275.759 144.731C255.706 144.732 255.477 131.401 255.484 115.518L255.492 90.895Z"/>
	<path fill="#75D1FE" transform="scale(2 2)" d="M286.535 260.782C281.267 257.372 283.28 244.369 283.281 239.255L283.265 206.992C283.324 194.06 299.679 197.796 309.095 197.786C336.714 197.758 335.159 192.468 353.975 213.466C353.99 214.884 357.029 217.082 358.021 218.239C353.194 221.096 334.68 223.531 332.182 230.054C332.161 229.023 332.568 228.153 332.43 227.105C330.507 233.777 328.083 239.562 321.681 243.042C312.602 247.978 310.093 244.561 302.944 242.429C303.108 242.937 303.193 243.025 303.584 243.396C297.841 246.403 293.906 262.386 291.521 264.545C289.498 264.367 288.44 261.459 286.535 260.782ZM302.944 242.429C310.093 244.561 312.602 247.978 321.681 243.042C328.083 239.562 330.507 233.777 332.43 227.105C331.54 225.071 331.259 222.888 330.642 220.772C325.961 204.732 302.425 204.086 296.082 219.575C292.476 228.381 295.848 236.777 302.944 242.429Z"/>
	<path fill="#162643" transform="scale(2 2)" d="M302.944 242.429C295.848 236.777 292.476 228.381 296.082 219.575C302.425 204.086 325.961 204.732 330.642 220.772C331.259 222.888 331.54 225.071 332.43 227.105C330.507 233.777 328.083 239.562 321.681 243.042C312.602 247.978 310.093 244.561 302.944 242.429ZM312.36 218.328C302.134 220.171 303.126 236.042 313.899 234.941C324.253 233.154 323.597 218.633 312.36 218.328Z"/>
	<defs>
		<linearGradient id="gradient_0" gradientUnits="userSpaceOnUse" x1="400.07056" y1="325.72519" x2="320.67484" y2="229.03177">
			<stop offset="0" stop-color="#3771E9"/>
			<stop offset="1" stop-color="#68CCFF"/>
		</linearGradient>
	</defs>
	<path fill="url(#gradient_0)" transform="scale(2 2)" d="M353.975 213.466C357.419 216.282 360.523 219.923 363.688 223.068L415.174 273.99C428.739 287.495 435.008 287.844 418.639 304.275L389.345 333.869C383.091 340.169 376.289 350.279 366.894 342.096C362.517 338.284 358.774 333.591 354.637 329.498L296.894 271.539C293.533 268.159 289.308 264.639 286.535 260.782C288.44 261.459 289.498 264.367 291.521 264.545C293.906 262.386 297.841 246.403 303.584 243.396C303.193 243.025 303.108 242.937 302.944 242.429C310.093 244.561 312.602 247.978 321.681 243.042C328.083 239.562 330.507 233.777 332.43 227.105C332.568 228.153 332.161 229.023 332.182 230.054C334.68 223.531 353.194 221.096 358.021 218.239C357.029 217.082 353.99 214.884 353.975 213.466Z"/>
	<path fill="#162643" transform="scale(2 2)" d="M362.357 249.269C365.926 249.317 369.419 252.385 367.916 256.08C366.513 259.529 342.464 284.081 337.257 286.389C333.62 286.713 329.757 282.882 331.719 279.295C333.056 276.85 358.311 250.591 362.357 249.269Z"/>
	<path fill="#162643" transform="scale(2 2)" d="M377.262 263.494C380.789 263.385 384.791 265.786 383.566 269.889C382.587 273.167 356.271 299.237 352.233 301.284C348.801 301.367 345.004 299.47 345.989 295.378C346.717 292.351 372.232 266.499 377.262 263.494Z"/>
	<path fill="#162643" transform="scale(2 2)" d="M392.55 278.521C396.03 278.519 399.895 281.249 398.559 285.16C397.369 288.64 371.148 314.215 367.223 315.969C363.398 316.073 359.673 313.149 361.335 308.926C362.161 306.828 388.295 280.363 392.55 278.521Z"/>
	<path fill="#162643" transform="scale(2 2)" d="M127.738 160.789L206.321 160.809C210.046 160.784 213.846 160.566 217.561 160.749C224.992 161.116 225.086 170.01 218.312 171.211L152.945 171.14C144.592 171.124 136.087 171.61 127.755 171.23C120.211 170.886 120.535 162.068 127.738 160.789Z"/>
	<path fill="#162643" transform="scale(2 2)" d="M126.81 215C132.234 214.656 137.887 214.995 143.334 214.996L230.081 214.999C239.202 214.993 248.367 214.782 257.481 215.004C261.905 215.111 263.89 215.554 265.456 220.039C264.578 222.986 263.845 224.545 260.585 225.362C254.41 225.798 247.937 225.372 241.726 225.366L152.263 225.361C144.307 225.362 136.194 225.723 128.259 225.391C119.997 225.046 120.432 216.25 126.81 215Z"/>
	<path fill="#162643" transform="scale(2 2)" d="M126.81 270.036C136.701 269.854 146.627 270.035 156.522 270.036L253.076 270.039C258.734 270.038 264.612 269.687 270.246 269.976C276.579 270.3 277.807 279.089 271.469 280.472L140.336 280.47C135.148 280.471 129.881 280.712 124.705 280.472C121.244 277.132 120.97 270.974 126.81 270.036Z"/>
	<path fill="#162643" transform="scale(2 2)" d="M244.394 325.704L263.673 325.694C266.881 325.674 270.428 325.332 273.609 325.68C279.688 326.347 279.843 335.537 273.731 336.129C269.95 336.496 265.831 336.169 262.021 336.167L156.368 336.156L135.495 336.166C130.366 336.185 122.517 338.185 122.053 330.708C121.613 323.629 135.277 325.71 139.415 325.711L244.394 325.704Z"/>
	<path fill="#162643" transform="scale(2 2)" d="M126.81 380.25C138.945 379.994 151.139 380.244 163.28 380.247L263.129 380.243C266.118 380.243 272.002 379.827 274.593 380.409C280.61 381.762 279.299 388.754 274.703 390.938C267.253 391.235 259.692 390.948 252.227 390.944L156.491 390.93C147.482 390.931 138.416 391.172 129.414 390.885C119.875 390.582 119.985 382.428 126.81 380.25Z"/>
</svg>
